PathFileType        4      (X/Y/Z)      C:\Users\pc\Desktop\IMUTRC\Sujet_06\Sujet_06_velo_80.trc         
DataRate	CameraRate	NumFrames	NumMarkers	Units	OrigDataRate	OrigDataStartFrame	OrigNumFrames
60.0	60.0	4	64	mm	60.0	119	948
Frame#	Time	pHipOrigin			pRightASI			pLeftASI			pRightCSI			pLeftCSI			pRightIschialTub			pLeftIschialTub			pSacrum			pL5SpinalProcess			pL3SpinalProcess			pT12SpinalProcess			pIJ			pT4SpinalProcess			pT8SpinalProcess			pPX			pC7SpinalProcess			pTopOfHead			pRightAuricularis			pLeftAuricularis			pBackOfHead			pRightAcromion			pLeftAcromion			pRightArmLatEpicondyle			pRightArmMedEpicondyle			pLeftArmLatEpicondyle			pLeftArmMedEpicondyle			pRightUlnarStyloid			pRightRadialStyloid			pRightOlecranon			pLeftUlnarStyloid			pLeftRadialStyloid			pLeftOlecranon			pRightTopOfHand			pRightPinky			pRightBallHand			pLeftTopOfHand			pLeftPinky			pLeftBallHand			pRightGreaterTrochanter			pRightKneeLatEpicondyle			pRightKneeMedEpicondyle			pRightPatella			pLeftGreaterTrochanter			pLeftKneeLatEpicondyle			pLeftKneeMedEpicondyle			pLeftPatella			pRightTibialTub			pRightLatMalleolus			pRightMedMalleolus			pLeftTibialTub			pLeftLatMalleolus			pLeftMedMalleolus			pRightHeelFoot			pRightFirstMetatarsal			pRightFifthMetatarsal			pRightPivotFoot			pRightHeelCenter			pRightToe			pLeftHeelFoot			pLeftFirstMetatarsal			pLeftFifthMetatarsal			pLeftPivotFoot			pLeftHeelCenter			pLeftToe			
		X1	Y1	Z1	X2	Y2	Z2	X3	Y3	Z3	X4	Y4	Z4	X5	Y5	Z5	X6	Y6	Z6	X7	Y7	Z7	X8	Y8	Z8	X9	Y9	Z9	X10	Y10	Z10	X11	Y11	Z11	X12	Y12	Z12	X13	Y13	Z13	X14	Y14	Z14	X15	Y15	Z15	X16	Y16	Z16	X17	Y17	Z17	X18	Y18	Z18	X19	Y19	Z19	X20	Y20	Z20	X21	Y21	Z21	X22	Y22	Z22	X23	Y23	Z23	X24	Y24	Z24	X25	Y25	Z25	X26	Y26	Z26	X27	Y27	Z27	X28	Y28	Z28	X29	Y29	Z29	X30	Y30	Z30	X31	Y31	Z31	X32	Y32	Z32	X33	Y33	Z33	X34	Y34	Z34	X35	Y35	Z35	X36	Y36	Z36	X37	Y37	Z37	X38	Y38	Z38	X39	Y39	Z39	X40	Y40	Z40	X41	Y41	Z41	X42	Y42	Z42	X43	Y43	Z43	X44	Y44	Z44	X45	Y45	Z45	X46	Y46	Z46	X47	Y47	Z47	X48	Y48	Z48	X49	Y49	Z49	X50	Y50	Z50	X51	Y51	Z51	X52	Y52	Z52	X53	Y53	Z53	X54	Y54	Z54	X55	Y55	Z55	X56	Y56	Z56	X57	Y57	Z57	X58	Y58	Z58	X59	Y59	Z59	X60	Y60	Z60	X61	Y61	Z61	X62	Y62	Z62	X63	Y63	Z63	X64	Y64	Z64	
119	1.967	0.0	1250.06673	7.654451098075493E-14	34.43785000000001	1329.6534	128.93855000000008	85.82344999999998	1337.51717	-95.58535999999992	2.711640000000013	1390.39417	105.34727000000008	46.09790999999999	1397.0377	-84.06088999999992	-60.06285999999999	1201.1216	34.437850000000076	-38.369730000000004	1204.51115	-60.19843999999992	-56.13098	1271.21753	-12.066799999999915	-23.4557	1361.37961	-1.2202399999999138	24.81152	1470.25202	10.033070000000087	71.58734	1568.6846	19.52382000000009	318.75346	1647.05104	63.58799000000006	190.08607	1726.90888	39.86113000000009	128.80297	1660.2025	29.69247000000009	238.89562	1552.27917	50.43653000000006	234.96374	1772.1933	47.31814000000008	515.75421	1790.09013	44.47092000000004	417.18604	1781.41288	124.19318000000005	407.6953	1772.32888	-19.93055999999994	404.98366	1833.20523	49.08071000000007	202.42404000000002	1744.80572	225.2018300000001	275.90952	1737.48429	-125.68457999999993	357.12318000000005	1489.36909	234.69257000000002	350.2085	1482.72557	172.32482000000002	442.94664	1504.82545	-136.12439999999998	412.44067	1477.98019	-87.99276999999996	516.29654	1294.1309	258.41943	549.64973	1321.92523	229.67603000000003	334.75214	1474.99739	219.77854000000005	640.6253	1347.8214	-130.70112	647.94673	1362.46427	-81.34924	422.20258	1487.06419	-138.70045999999996	700.28141	1299.01186	259.91083999999995	624.35545	1272.57335	274.28254	561.03862	1286.94505	249.60660000000001	798.17167	1339.41531	-40.13229000000001	742.98977	1328.29758	-99.38166	674.11407	1336.02576	-105.48285	-6.507939999999982	1213.86631	143.85258000000007	278.89233	963.71739	130.56554000000003	294.48427	976.59768	59.52053000000002	311.56761	1002.08711	103.72029000000002	51.11443999999999	1243.15204	-143.58141999999992	351.29316	1012.12019	-116.87174999999999	344.51405	1002.35828	-44.064169999999976	369.73232	1041.13475	-71.31616999999999	332.0405	938.90587	101.27981000000001	227.37114000000003	580.96919	119.58339000000001	236.45514	580.29128	61.14752000000001	364.17345	958.2941	-77.41735999999999	79.04434999999998	720.61873	-117.27848999999998	77.68852999999999	719.66965	-58.164709999999964	185.3407	503.0095	78.50202	344.9208	482.12986	90.83998999999999	321.87184	484.8415	163.64756	354.14038	480.63845	132.87042999999997	220.8632	500.16227	89.89092	426.13446	470.87654	156.05496999999997	-12.20239000000001	708.6875	-85.14553999999995	71.58734	576.63056	-44.60649999999997	69.82476999999999	573.64776	-120.93920999999999	82.02715999999998	556.7	-81.34923999999998	9.083999999999989	677.77479	-84.46762999999996	122.02386999999999	491.75618	-79.72225999999999	
120	1.983	0.0	1250.06673	7.654451098075493E-14	35.25134000000001	1329.38224	128.93855000000008	85.28111999999999	1337.78833	-95.99210999999993	3.5251300000000128	1390.12301	105.61844000000009	45.691159999999996	1397.17328	-84.06088999999992	-59.927279999999996	1201.1216	34.70901000000008	-38.77647000000001	1204.64673	-60.06285999999992	-56.13098	1271.21753	-11.660059999999914	-23.32012	1361.37961	-0.9490699999999137	24.81152	1470.25202	10.304240000000087	71.31617	1568.6846	19.794980000000088	318.34671	1647.86453	63.31683000000007	189.27258	1727.31563	39.86113000000009	128.26064	1660.33808	29.82806000000009	238.89562	1552.95708	50.300950000000064	234.01466	1772.87121	47.18256000000008	514.80514	1790.36129	43.52185000000004	416.64372	1782.22637	123.65085000000006	406.47506	1772.73562	-20.47288999999994	404.17016	1833.74756	48.40280000000006	202.28846000000001	1745.61921	225.06624000000008	274.82487	1737.48429	-126.09132999999993	356.44527000000005	1489.50467	234.28582000000003	349.12384	1482.72557	172.05365000000003	441.86198	1504.82545	-135.85323999999997	411.4916	1478.25136	-87.45043999999997	514.94072	1293.85974	258.82618	548.42949	1321.3829	229.94720000000004	333.80307	1475.26855	219.37180000000006	639.54065	1347.8214	-130.15879	646.7265	1362.59985	-80.67133	421.25351	1487.33536	-138.29371999999998	698.92559	1298.87627	260.04641999999996	623.13521	1272.43777	274.5537	559.6828	1286.67389	249.87776000000002	796.95143	1339.14415	-39.589970000000015	741.76953	1328.29758	-98.70375	673.02942	1336.02576	-104.80494	-8.812829999999982	1212.37491	143.7170000000001	258.82618	943.38007	130.42996000000002	275.77394	955.85363	59.791690000000024	294.2131	979.71607	104.26262000000001	51.52118999999998	1245.59252	-143.44582999999992	363.0888	1030.28818	-116.05825999999999	356.30969	1019.71278	-43.38625999999998	379.76539	1059.98066	-70.23150999999997	313.60134	918.70414	101.68656000000001	214.89759000000004	559.14048	118.7699	224.25275	558.59815	60.46961000000001	375.56235	976.19094	-77.01061999999999	89.07741999999999	740.14254	-117.82081999999997	87.85717999999999	738.92231	-58.84261999999997	172.4604	481.85869	76.87504000000001	332.0405	459.75881	88.26392999999999	309.26271	461.65696	161.20709	341.39566	457.5895	130.15879	208.11848	478.60472	87.99277	413.52533	447.14968	152.93657999999996	-2.1693100000000105	728.07574	-85.41670999999995	81.75599	596.0188	-45.41998999999997	79.72225999999999	593.03599	-121.61711999999997	92.06022999999999	576.08823	-82.02715999999998	19.25264999999999	697.29861	-84.73879999999996	132.05694	511.14442	-80.67132999999998	
121	2.0	0.0	1250.06673	7.654451098075493E-14	36.064830000000015	1328.97549	128.93855000000008	84.60320999999999	1337.92391	-96.26326999999993	4.203040000000013	1389.85185	105.88960000000009	45.14882999999999	1397.30886	-83.92529999999991	-59.65610999999999	1200.98602	34.980180000000075	-39.183220000000006	1204.78231	-59.927279999999925	-56.26656	1271.21753	-11.253309999999916	-23.32012	1361.37961	-0.5423299999999137	24.67594	1470.11643	10.710980000000086	71.04501	1568.6846	20.06615000000009	317.93996	1648.67803	63.18125000000006	188.59467	1727.72238	40.13229000000008	127.8539	1660.60925	30.099220000000088	238.76003	1553.49941	50.43653000000006	233.33675	1773.41353	47.45373000000008	513.99164	1790.90362	42.843940000000046	416.10139	1782.90428	123.37969000000005	405.52598	1773.27795	-20.60847999999994	403.49225	1834.28989	48.13164000000006	202.42404000000002	1746.16154	225.2018300000001	273.87579	1737.61987	-126.22690999999993	355.76736000000005	1489.23351	234.28582000000003	348.17477	1482.31882	172.05365000000003	440.64174	1504.82545	-135.31090999999998	410.54252	1478.6581	-86.63694999999997	513.5849	1293.31741	259.23293	547.20925	1320.70499	230.35394000000002	332.98958	1474.99739	219.50738000000007	638.45599	1347.8214	-129.3453	645.64184	1362.46427	-79.99342	420.16885	1487.47094	-137.61580999999998	697.84094	1298.74069	260.45316999999994	622.05056	1272.03102	274.96045	558.46256	1286.13156	250.28451000000004	795.7312	1338.87299	-38.77647000000002	740.54929	1328.162	-98.02584	671.80918	1335.89018	-104.12703	-11.117729999999982	1211.29025	143.5814200000001	239.43794000000003	926.29673	130.56554000000003	257.74152	938.09237	60.06286000000003	277.26534	960.46342	104.94053000000002	51.792349999999985	1247.89741	-143.44582999999992	373.52862	1048.45618	-114.97359999999998	366.88509	1037.06729	-42.301609999999975	388.44264	1078.69098	-68.87568999999998	295.84009	901.07847	102.36447000000001	200.79705000000004	540.43015	118.36315	210.69454	540.0234	60.06286000000001	385.86658	993.95219	-76.06153999999998	100.05956999999998	757.63263	-118.49872999999997	98.70374999999999	756.00565	-59.520529999999965	157.54637	464.09744	75.51922000000002	316.71973	439.55709	86.09461999999999	294.34868	440.64174	159.03777	326.21047	436.70986	127.98947999999999	193.06887	460.16556	86.50136	398.06897	424.91422	150.22493999999998	9.083999999999989	744.07442	-85.95903999999996	95.04303	613.23772	-46.36906999999998	92.73813999999999	610.3905	-122.56619999999997	105.48284999999998	593.57832	-83.11180999999998	30.91270999999999	713.56846	-85.41670999999995	146.42864	529.31242	-81.89156999999999	
122	2.017	0.0	1250.06673	7.654451098075493E-14	37.01391000000002	1328.70433	128.93855000000008	83.92529999999998	1338.19508	-96.67001999999992	5.016540000000013	1389.4451	106.29635000000009	44.60649999999999	1397.58002	-83.78971999999992	-59.384949999999996	1200.85043	35.25134000000008	-39.58997000000001	1204.9179	-59.791689999999925	-56.26656	1271.35311	-10.846569999999915	-23.32012	1361.24403	-0.1355799999999138	24.67594	1470.11643	11.117730000000087	70.90942	1568.82018	20.60848000000009	317.6688	1649.22035	63.31683000000007	188.05234	1727.99354	40.539040000000085	127.44715	1660.74483	30.641550000000088	238.62445	1553.90616	50.43653000000006	232.65884	1773.82028	47.86047000000008	513.31373	1791.58153	42.57277000000004	415.55906	1783.58219	123.37969000000005	404.57691	1773.82028	-20.60847999999994	402.81434	1834.9678	48.13164000000006	202.96637000000004	1746.4327	225.60857000000007	272.92672	1737.61987	-126.09132999999993	354.95387000000005	1488.5556	234.82815000000002	346.95453	1481.36975	172.73156000000006	439.4215	1504.68986	-134.63299999999998	409.59345	1478.92927	-85.41670999999997	512.63582	1292.36833	259.77525	546.1246	1319.75591	230.76069000000004	332.0405	1474.1839	220.18529000000007	637.23575	1347.8214	-128.39622	644.4216	1362.32868	-79.04435	419.08419	1487.60652	-136.80230999999998	696.75628	1298.74069	260.85990999999996	621.23707	1271.62428	275.36719	557.64907	1285.31807	250.69126000000003	794.64654	1338.46624	-37.962980000000016	739.46463	1327.89084	-97.21235	670.58894	1335.89018	-103.31354	-13.015879999999981	1210.61234	143.5814200000001	221.81227000000004	912.46736	131.37903000000003	241.33609	923.44951	61.14752000000003	261.53782	944.60031	106.29635000000003	51.792349999999985	1250.06673	-143.3102499999999	382.7482	1066.35302	-113.34660999999997	376.10467	1054.42179	-40.81019999999998	395.76408	1097.13015	-66.97753999999998	279.29907	886.70677	103.99145000000003	185.47628000000003	525.6517	118.49873	196.18726	525.38054	60.33402000000002	395.22175	1011.84902	-74.70571999999999	111.71962999999998	773.08899	-119.31222999999997	110.09263999999999	771.32642	-60.19843999999996	140.59861	450.67482	74.70572000000001	299.09406	421.93142	84.60320999999999	276.72301	422.60933	157.68195	308.5848	418.13512	126.36248999999998	176.12111	445.65828	85.55229	380.17214	404.30575	148.46236999999996	21.15079999999999	756.27681	-87.04368999999996	111.44847	628.42292	-47.589309999999976	109.68589999999999	625.71127	-123.92201999999997	122.83735999999999	609.17026	-84.33204999999997	43.92858999999999	726.44876	-86.50135999999996	165.95246	546.53134	-83.24738999999998	
